<?xml version="1.0" standalone="no"?>
<!DOCTYPE svg PUBLIC "-//W3C//DTD SVG 20010904//EN"
 "http://www.w3.org/TR/2001/REC-SVG-20010904/DTD/svg10.dtd">
<svg version="1.0" xmlns="http://www.w3.org/2000/svg"
 width="200.000000pt" height="200.000000pt" viewBox="0 0 200.000000 200.000000"
 preserveAspectRatio="xMidYMid meet">
<metadata>
Created by potrace 1.11, written by Peter Selinger 2001-2013
</metadata>
<g transform="translate(0.000000,200.000000) scale(0.100000,-0.100000)"
fill="#000000" stroke="none">
<path d="M850 1850 c-16 -16 -18 -25 -10 -40 6 -11 17 -20 25 -20 12 0 15 -14
15 -64 0 -35 3 -71 6 -80 4 -11 0 -16 -14 -16 -17 0 -21 7 -24 38 l-3 37 -5
-40 c-3 -22 -2 -60 1 -85 l6 -45 1 43 c2 35 5 42 22 42 13 0 23 -10 30 -32
l10 -33 -5 33 c-2 17 -1 32 3 32 5 0 17 7 28 16 18 14 18 15 -5 4 -19 -10 -25
-9 -32 1 -23 36 1 65 29 37 6 -6 15 -9 19 -5 4 4 -8 13 -25 19 -28 11 -32 17
-32 50 0 27 5 40 20 48 26 14 25 45 -2 64 -29 20 -34 20 -58 -4z"/>
<path d="M852 1735 c0 -16 2 -22 5 -12 2 9 2 23 0 30 -3 6 -5 -1 -5 -18z"/>
<path d="M800 1680 c-9 -6 -10 -10 -3 -10 6 0 15 5 18 10 8 12 4 12 -15 0z"/>
<path d="M790 1630 c8 -5 20 -10 25 -10 6 0 3 5 -5 10 -8 5 -19 10 -25 10 -5
0 -3 -5 5 -10z"/>
<path d="M851 1494 c0 -11 3 -14 6 -6 3 7 2 16 -1 19 -3 4 -6 -2 -5 -13z"/>
<path d="M934 1439 c-4 -7 -22 -9 -47 -6 -46 6 -67 0 -67 -19 0 -30 67 -38
143 -17 31 8 18 -15 -14 -26 -46 -16 -95 -14 -114 5 -14 15 -20 13 -69 -24
-55 -42 -109 -108 -144 -177 -11 -22 -32 -51 -46 -64 -19 -18 -26 -34 -26 -62
0 -21 5 -41 10 -44 6 -3 10 -39 10 -78 0 -152 60 -271 166 -333 17 -10 19 -28
24 -182 5 -171 5 -172 32 -199 23 -23 38 -28 93 -31 80 -5 86 -23 14 -47 -57
-19 -89 -59 -88 -110 0 -29 1 -29 15 9 18 51 40 74 77 84 25 7 34 3 63 -26 37
-37 41 -38 226 -16 67 8 88 -4 88 -47 0 -27 3 -29 40 -29 45 0 49 9 26 64 -19
46 -60 74 -117 82 -43 6 -51 11 -63 38 -8 18 -16 81 -19 151 -3 66 -11 144
-17 173 -17 75 -9 93 49 120 63 31 156 114 181 163 32 61 46 211 32 323 -22
174 -76 267 -180 306 -67 26 -222 40 -222 21 0 -28 -115 -53 -148 -32 -20 12
20 21 41 9 16 -8 87 13 87 26 0 11 -29 6 -36 -5z m253 -34 c32 -21 79 -107
104 -188 18 -56 20 -86 17 -175 -5 -124 -27 -188 -84 -243 -39 -38 -48 -33
-58 32 -3 21 -10 40 -14 43 -4 2 -55 -12 -112 -31 -93 -32 -119 -37 -227 -41
-68 -2 -123 -5 -123 -6 0 0 9 -32 20 -70 11 -38 18 -72 15 -74 -3 -3 0 -11 7
-19 18 -22 4 -23 -30 -1 -64 40 -112 158 -112 275 l0 61 220 0 c211 0 222 1
267 23 40 20 50 30 57 62 13 50 -13 86 -80 110 -41 15 -72 17 -194 12 -80 -2
-162 -8 -183 -11 l-39 -6 18 33 c25 50 79 113 122 142 34 24 40 25 81 15 78
-20 175 19 163 64 -5 21 -3 21 69 14 40 -3 84 -13 96 -21z m-145 -256 c58 -16
78 -36 78 -77 l0 -37 -18 35 c-22 46 -74 70 -174 80 -43 4 -82 11 -86 15 -9 9
159 -4 200 -16z m-172 -19 c-14 -4 -65 -8 -115 -9 -110 -1 -158 -23 -153 -69
4 -39 49 -51 194 -51 119 -1 227 13 252 32 20 16 14 45 -13 63 -14 9 -51 20
-83 25 l-57 8 62 -4 c85 -4 127 -29 131 -77 3 -29 -1 -37 -20 -43 -32 -10
-378 -19 -433 -11 -75 12 -95 51 -52 102 21 24 31 27 127 34 58 4 123 7 145 8
34 0 36 -1 15 -8z m-110 -61 c0 -20 -15 -26 -25 -9 -9 15 3 43 15 35 5 -3 10
-15 10 -26z m175 6 c0 -10 -6 -20 -12 -22 -8 -3 -13 5 -13 22 0 17 5 25 13 23
6 -3 12 -13 12 -23z m-110 -447 c48 -10 145 -6 192 8 l23 6 -17 -38 c-12 -29
-18 -83 -22 -214 l-6 -175 -52 -9 c-56 -9 -110 -3 -137 17 -15 11 -19 38 -25
194 -6 150 -10 185 -25 208 -18 27 -18 28 0 20 11 -4 42 -12 69 -17z m160
-468 c10 -11 16 -20 13 -20 -3 0 -13 9 -23 20 -10 11 -16 20 -13 20 3 0 13 -9
23 -20z"/>
</g>
</svg>
